<mxfile host="app.diagrams.net" modified="2024-07-30T11:27:04.513Z" agent="Mozilla/5.0 (Macintosh; Intel Mac OS X 10_15_7) AppleWebKit/537.36 (KHTML, like Gecko) Chrome/127.0.0.0 Safari/537.36" version="24.6.4" etag="GfcoIHDEO7ImBGWOjSnI" type="github">
  <diagram name="Page-1" id="utj2WjBaV3Cg1H_ofgc4">
    <mxGraphModel>
      <root>
        <mxCell id="0" />
        <mxCell id="1" parent="0" />
      </root>
    </mxGraphModel>
  </diagram>
</mxfile>
